<svg width="32" height="32" viewBox="0 0 32 32" fill="none" xmlns="http://www.w3.org/2000/svg">
<circle cx="16" cy="16" r="16" fill="#FFD93B"/>
<path fill-rule="evenodd" clip-rule="evenodd" d="M25.7928 20.9852C24.141 24.9316 20.2811 27.5004 16.0028 27.5004C11.7246 27.5004 7.86469 24.9316 6.21283 20.9852C6.05688 20.6265 6.09863 20.2124 6.32312 19.8921C6.54755 19.5717 6.92242 19.3911 7.31281 19.4152C13.097 19.7821 18.8986 19.7821 24.6827 19.4152C25.0733 19.392 25.4482 19.5721 25.6741 19.8916C25.9 20.2111 25.9449 20.6246 25.7928 20.9852Z" fill="#3E4347"/>
<path fill-rule="evenodd" clip-rule="evenodd" d="M31.5729 16C31.5761 22.6044 27.4122 28.493 21.1838 30.6918C14.9553 32.8905 8.0174 30.9209 3.87329 25.7775C10.0688 30.7755 19.0361 30.2971 24.6646 24.6683C30.2932 19.0395 30.7712 10.0723 25.7729 3.87695C29.4421 6.8313 31.5749 11.2892 31.5729 16H31.5729Z" fill="#F4C534"/>
<ellipse cx="9.58005" cy="11.713" rx="5.655" ry="5.66" fill="white"/>
<path fill-rule="evenodd" clip-rule="evenodd" d="M13.629 11.3541C13.6311 12.514 12.9336 13.561 11.8622 14.006C10.7908 14.4509 9.55688 14.2061 8.73657 13.3859C7.9162 12.5656 7.67126 11.3317 8.11609 10.2601C8.56091 9.18872 9.60779 8.49121 10.7679 8.49316C11.5271 8.49182 12.2556 8.79272 12.7925 9.32959C13.3293 9.86646 13.6303 10.595 13.629 11.3541Z" fill="#3E4347"/>
<path fill-rule="evenodd" clip-rule="evenodd" d="M12.4128 10.8098C12.2179 11.0099 11.8129 10.9169 11.5079 10.6099C11.2029 10.3029 11.1079 9.90979 11.3079 9.70483C11.5079 9.49988 11.9079 9.60486 12.2129 9.90479C12.5179 10.2048 12.6169 10.6149 12.4128 10.8098Z" fill="white"/>
<ellipse cx="22.4201" cy="11.713" rx="5.655" ry="5.66" fill="white"/>
<path fill-rule="evenodd" clip-rule="evenodd" d="M18.0911 11.3541C18.089 12.514 18.7864 13.561 19.8578 14.006C20.9292 14.4509 22.1631 14.2061 22.9835 13.3859C23.8038 12.5656 24.0488 11.3317 23.604 10.2601C23.1591 9.18872 22.1123 8.49121 20.9521 8.49316C20.193 8.49182 19.4645 8.79272 18.9276 9.32959C18.3907 9.86646 18.0897 10.595 18.0911 11.3541Z" fill="#3E4347"/>
<path fill-rule="evenodd" clip-rule="evenodd" d="M19.3071 10.8098C19.5021 11.0099 19.907 10.9169 20.2121 10.6099C20.517 10.3029 20.6121 9.90979 20.412 9.70483C20.2121 9.49988 19.8121 9.60486 19.5071 9.90479C19.2021 10.2048 19.0991 10.6149 19.3071 10.8098Z" fill="white"/>
<path fill-rule="evenodd" clip-rule="evenodd" d="M7.31305 19.4161C7.24603 19.4149 7.17914 19.42 7.11304 19.4312C8.92004 21.8782 12.2131 22.0132 15.996 22.0132C19.7791 22.0132 23.0721 21.8782 24.8791 19.4312C24.813 19.4203 24.746 19.4152 24.6791 19.4161C18.8961 19.7828 13.0958 19.7828 7.31287 19.4161H7.31305Z" fill="white"/>
<path fill-rule="evenodd" clip-rule="evenodd" d="M15.998 27.501C17.5624 27.5024 19.1077 27.1565 20.522 26.488C20.4661 25.3921 20.0116 24.3542 19.2441 23.5701C18.6375 22.9617 17.7358 22.7552 16.925 23.0391C16.1608 23.3047 15.3572 23.4399 14.548 23.439C13.0789 23.4478 11.8216 24.4955 11.548 25.939C11.5191 26.124 11.5021 26.3107 11.4971 26.4979C12.9052 27.1595 14.4422 27.5021 15.998 27.501Z" fill="#E24B4B"/>
</svg>
