<svg width="251" height="224" viewBox="0 0 251 224" fill="none" xmlns="http://www.w3.org/2000/svg">
<path d="M156.244 29.1665L156.375 60.5738L129.181 45.0433L156.244 29.1665Z" fill="#307FF4"/>
<path d="M156.337 123.884L128.651 141.004L129.068 108.01L156.337 123.884Z" fill="#307FF4"/>
<path d="M101.958 92.0964L129.378 108.267V76.0703L101.958 92.0964Z" fill="#E2E2E2"/>
<path d="M102.203 156.336L101.95 123.372L129.196 107.965L129.439 140.534L102.203 156.336Z" fill="#2B44A0"/>
<path d="M156.344 123.904L156.364 91.3577L129.139 75.9526L129.126 108.109L156.344 123.904Z" fill="white"/>
<path d="M129.379 76.092L101.963 92.1178L102.035 60.7051L129.379 76.092Z" fill="#307FF4"/>
<path d="M101.939 60.6483L129.379 44.9526L156.454 60.5226L129.379 76.0923L101.939 60.6483Z" fill="#2B44A0"/>
<path d="M197 0H58C46.9543 0 38 8.9543 38 20V159C38 170.046 46.9543 179 58 179H197C208.046 179 217 170.046 217 159V20C217 8.9543 208.046 0 197 0Z" fill="white"/>
<path d="M100.984 121.88C95.235 121.88 90.307 120.853 86.2 118.8C82.152 116.688 78.6613 113.637 75.728 109.648L84 100.32C86.875 104.309 89.72 107.037 92.536 108.504C95.411 109.912 98.491 110.616 101.776 110.616C103.595 110.616 105.208 110.352 106.616 109.824C108.083 109.296 109.227 108.563 110.048 107.624C110.928 106.685 111.368 105.6 111.368 104.368C111.368 103.429 111.163 102.579 110.752 101.816C110.341 100.995 109.755 100.291 108.992 99.704C108.229 99.059 107.32 98.501 106.264 98.032C105.208 97.504 104.035 97.064 102.744 96.712C101.453 96.36 100.045 96.037 98.52 95.744C95.235 95.04 92.36 94.1307 89.896 93.016C87.432 91.9013 85.379 90.552 83.736 88.968C82.093 87.384 80.861 85.5653 80.04 83.512C79.277 81.4 78.896 79.0533 78.896 76.472C78.896 72.8347 79.923 69.6667 81.976 66.968C84.029 64.2107 86.757 62.0693 90.16 60.544C93.563 58.96 97.317 58.168 101.424 58.168C106.997 58.168 111.573 59.1067 115.152 60.984C118.789 62.8613 121.693 65.5013 123.864 68.904L115.416 77.176C113.597 74.6533 111.515 72.7467 109.168 71.456C106.821 70.1653 104.299 69.52 101.6 69.52C99.723 69.52 98.051 69.784 96.584 70.312C95.176 70.7813 94.091 71.5147 93.328 72.512C92.565 73.4507 92.184 74.5653 92.184 75.856C92.184 76.912 92.448 77.8507 92.976 78.672C93.504 79.4933 94.237 80.2267 95.176 80.872C96.173 81.4587 97.376 81.9867 98.784 82.456C100.192 82.9253 101.747 83.3067 103.448 83.6C106.675 84.2453 109.579 85.1253 112.16 86.24C114.741 87.296 116.941 88.5867 118.76 90.112C120.637 91.6373 122.075 93.3973 123.072 95.392C124.069 97.387 124.568 99.616 124.568 102.08C124.568 106.245 123.571 109.795 121.576 112.728C119.581 115.661 116.824 117.92 113.304 119.504C109.784 121.088 105.677 121.88 100.984 121.88ZM136.524 121V59.4H178.06V71.016H149.46V109.384H178.676V121H136.524ZM142.684 95.216V83.952H173.836V95.216H142.684Z" fill="#141623"/>
<path d="M16.7773 215.373C16.7773 214.852 16.6973 214.385 16.5371 213.971C16.3903 213.544 16.11 213.157 15.6963 212.81C15.2826 212.45 14.702 212.096 13.9546 211.749C13.2072 211.402 12.2396 211.042 11.0518 210.668C9.73055 210.241 8.47595 209.76 7.28815 209.227C6.11365 208.693 5.07265 208.072 4.16505 207.365C3.27085 206.644 2.56355 205.81 2.04305 204.862C1.53585 203.915 1.28225 202.814 1.28225 201.559C1.28225 200.345 1.54925 199.243 2.08305 198.256C2.61695 197.255 3.36435 196.401 4.32525 195.693C5.28615 194.973 6.42065 194.419 7.72855 194.032C9.04985 193.645 10.4979 193.451 12.0728 193.451C14.2215 193.451 16.0967 193.838 17.6982 194.612C19.2998 195.386 20.541 196.447 21.4219 197.795C22.3161 199.143 22.7632 200.685 22.7632 202.42H16.7974C16.7974 201.566 16.6172 200.818 16.2568 200.178C15.9098 199.524 15.376 199.01 14.6553 198.636C13.9479 198.263 13.0537 198.076 11.9727 198.076C10.9316 198.076 10.0641 198.236 9.37015 198.556C8.67615 198.863 8.15565 199.284 7.80865 199.817C7.46165 200.338 7.28815 200.925 7.28815 201.579C7.28815 202.073 7.40825 202.52 7.64845 202.92C7.90205 203.321 8.27575 203.694 8.76955 204.042C9.26335 204.389 9.87065 204.715 10.5913 205.022C11.312 205.329 12.1462 205.63 13.0938 205.923C14.682 206.404 16.0767 206.944 17.2778 207.545C18.4924 208.146 19.5067 208.819 20.3208 209.567C21.1349 210.314 21.7489 211.162 22.1626 212.109C22.5763 213.057 22.7832 214.131 22.7832 215.333C22.7832 216.6 22.5363 217.735 22.0425 218.736C21.5487 219.737 20.8346 220.584 19.9004 221.278C18.9661 221.972 17.8517 222.5 16.5571 222.86C15.2625 223.22 13.8145 223.4 12.2129 223.4C10.7715 223.4 9.35015 223.214 7.94875 222.84C6.54745 222.453 5.27285 221.872 4.12505 221.098C2.99065 220.324 2.08305 219.336 1.40235 218.135C0.721748 216.934 0.381348 215.513 0.381348 213.871H6.40725C6.40725 214.779 6.54745 215.546 6.82765 216.173C7.10795 216.801 7.50165 217.308 8.00885 217.695C8.52935 218.082 9.14325 218.362 9.85065 218.536C10.5713 218.709 11.3587 218.796 12.2129 218.796C13.2539 218.796 14.1081 218.649 14.7754 218.355C15.4561 218.062 15.9565 217.655 16.2769 217.134C16.6105 216.614 16.7773 216.027 16.7773 215.373ZM32.873 193.852V223H26.8672V193.852H32.873ZM50.3301 193.852L38.7788 208.246L32.1123 215.413L31.0312 209.727L35.5356 203.561L42.9629 193.852H50.3301ZM43.5034 223L34.915 209.527L39.3595 205.803L50.6104 223H43.5034ZM59.3188 193.852V223H53.333V193.852H59.3188ZM83.683 218.315V223H69.0083V218.315H83.683ZM70.9502 193.852V223H64.9443V193.852H70.9502ZM105.864 218.315V223H91.19V218.315H105.864ZM93.132 193.852V223H87.126V193.852H93.132ZM124.482 215.373C124.482 214.852 124.402 214.385 124.242 213.971C124.095 213.544 123.815 213.157 123.401 212.81C122.988 212.45 122.407 212.096 121.66 211.749C120.912 211.402 119.945 211.042 118.757 210.668C117.436 210.241 116.181 209.76 114.993 209.227C113.819 208.693 112.778 208.072 111.87 207.365C110.976 206.644 110.269 205.81 109.748 204.862C109.241 203.915 108.987 202.814 108.987 201.559C108.987 200.345 109.254 199.243 109.788 198.256C110.322 197.255 111.069 196.401 112.03 195.693C112.991 194.973 114.126 194.419 115.434 194.032C116.755 193.645 118.203 193.451 119.778 193.451C121.927 193.451 123.802 193.838 125.403 194.612C127.005 195.386 128.246 196.447 129.127 197.795C130.021 199.143 130.468 200.685 130.468 202.42H124.502C124.502 201.566 124.322 200.818 123.962 200.178C123.615 199.524 123.081 199.01 122.36 198.636C121.653 198.263 120.759 198.076 119.678 198.076C118.637 198.076 117.769 198.236 117.075 198.556C116.381 198.863 115.861 199.284 115.514 199.817C115.167 200.338 114.993 200.925 114.993 201.579C114.993 202.073 115.113 202.52 115.354 202.92C115.607 203.321 115.981 203.694 116.475 204.042C116.968 204.389 117.576 204.715 118.296 205.022C119.017 205.329 119.851 205.63 120.799 205.923C122.387 206.404 123.782 206.944 124.983 207.545C126.197 208.146 127.212 208.819 128.026 209.567C128.84 210.314 129.454 211.162 129.868 212.109C130.281 213.057 130.488 214.131 130.488 215.333C130.488 216.6 130.241 217.735 129.748 218.736C129.254 219.737 128.54 220.584 127.605 221.278C126.671 221.972 125.557 222.5 124.262 222.86C122.968 223.22 121.52 223.4 119.918 223.4C118.477 223.4 117.055 223.214 115.654 222.84C114.252 222.453 112.978 221.872 111.83 221.098C110.696 220.324 109.788 219.336 109.107 218.135C108.427 216.934 108.086 215.513 108.086 213.871H114.112C114.112 214.779 114.252 215.546 114.533 216.173C114.813 216.801 115.207 217.308 115.714 217.695C116.234 218.082 116.848 218.362 117.556 218.536C118.276 218.709 119.064 218.796 119.918 218.796C120.959 218.796 121.813 218.649 122.48 218.355C123.161 218.062 123.662 217.655 123.982 217.134C124.316 216.614 124.482 216.027 124.482 215.373ZM154.131 218.315V223H138.616V218.315H154.131ZM140.578 193.852V223H134.572V193.852H140.578ZM152.109 205.723V210.288H138.616V205.723H152.109ZM154.111 193.852V198.556H138.616V193.852H154.111ZM181.358 193.852V223H175.352L163.641 203.461V223H157.635V193.852H163.641L175.372 213.411V193.852H181.358ZM209.686 207.765V219.316C209.232 219.864 208.531 220.458 207.583 221.098C206.636 221.725 205.415 222.266 203.92 222.72C202.425 223.174 200.617 223.4 198.495 223.4C196.613 223.4 194.898 223.093 193.35 222.479C191.801 221.852 190.467 220.938 189.346 219.737C188.238 218.536 187.384 217.068 186.783 215.333C186.183 213.584 185.882 211.589 185.882 209.347V207.525C185.882 205.283 186.169 203.287 186.743 201.539C187.33 199.791 188.165 198.316 189.246 197.115C190.327 195.914 191.615 194.999 193.109 194.372C194.604 193.745 196.266 193.431 198.094 193.431C200.63 193.431 202.712 193.845 204.34 194.672C205.969 195.486 207.21 196.621 208.064 198.076C208.931 199.517 209.465 201.172 209.666 203.041H203.84C203.693 202.053 203.413 201.192 202.999 200.458C202.585 199.724 201.991 199.15 201.217 198.736C200.457 198.323 199.469 198.116 198.254 198.116C197.253 198.116 196.359 198.323 195.572 198.736C194.798 199.137 194.144 199.731 193.61 200.518C193.076 201.306 192.669 202.28 192.389 203.441C192.108 204.602 191.968 205.95 191.968 207.485V209.347C191.968 210.868 192.115 212.216 192.409 213.391C192.702 214.552 193.136 215.533 193.71 216.333C194.297 217.121 195.018 217.715 195.872 218.115C196.726 218.516 197.721 218.716 198.855 218.716C199.803 218.716 200.59 218.636 201.217 218.476C201.858 218.315 202.372 218.122 202.759 217.895C203.159 217.655 203.466 217.428 203.68 217.214V212.049H198.194V207.765H209.686ZM220.917 193.852V223H214.931V193.852H220.917ZM250.265 193.852V223H244.259L232.548 203.461V223H226.542V193.852H232.548L244.279 213.411V193.852H250.265Z" fill="white"/>
</svg>
