<svg width="44" height="43" viewBox="0 0 44 43" fill="none" xmlns="http://www.w3.org/2000/svg">
<path fill-rule="evenodd" clip-rule="evenodd" d="M13.5742 12.9861L21.0062 1.06604C21.1288 0.850098 21.3579 0.716797 21.6062 0.716797C21.8545 0.716797 22.0836 0.850098 22.2062 1.06604L29.6332 12.9861H13.5742Z" fill="#955BA5"/>
<path fill-rule="evenodd" clip-rule="evenodd" d="M9.36108 2.16101C8.96338 2.16101 8.64111 1.83862 8.64111 1.44104V0.719971C8.64111 0.322388 8.96338 0 9.36108 0C9.75867 0 10.0811 0.322388 10.0811 0.719971V1.43994C10.0813 1.6311 10.0056 1.81445 9.87061 1.94971C9.73547 2.08496 9.55225 2.16101 9.36108 2.16101Z" fill="#F0C419"/>
<path fill-rule="evenodd" clip-rule="evenodd" d="M9.36108 5.76111C8.96338 5.76111 8.64111 5.43872 8.64111 5.04114V4.32104C8.64111 3.92346 8.96338 3.60107 9.36108 3.60107C9.75867 3.60107 10.0811 3.92346 10.0811 4.32104V5.04114C10.0811 5.43872 9.75867 5.76111 9.36108 5.76111Z" fill="#F0C419"/>
<path fill-rule="evenodd" clip-rule="evenodd" d="M7.9209 3.60107H7.20093C6.80334 3.60107 6.48096 3.27869 6.48096 2.8811C6.48096 2.4834 6.80334 2.16113 7.20093 2.16113H7.9209C8.3186 2.16113 8.64099 2.4834 8.64099 2.8811C8.64099 3.27869 8.3186 3.60107 7.9209 3.60107Z" fill="#F0C419"/>
<path fill-rule="evenodd" clip-rule="evenodd" d="M11.5221 3.60107H10.8021C10.4044 3.60107 10.082 3.27869 10.082 2.8811C10.082 2.4834 10.4044 2.16113 10.8021 2.16113H11.5221C11.9197 2.16113 12.2421 2.4834 12.2421 2.8811C12.2421 3.27869 11.9197 3.60107 11.5221 3.60107Z" fill="#F0C419"/>
<path fill-rule="evenodd" clip-rule="evenodd" d="M2.88 10.0809C2.4823 10.0809 2.15991 9.75854 2.15991 9.36096V8.64099C2.15991 8.24329 2.4823 7.9209 2.88 7.9209C3.27759 7.9209 3.59998 8.24329 3.59998 8.64099V9.36096C3.59998 9.75854 3.27759 10.0809 2.88 10.0809Z" fill="#F0C419"/>
<path fill-rule="evenodd" clip-rule="evenodd" d="M2.88 13.687C2.4823 13.687 2.15991 13.3647 2.15991 12.967V12.2471C2.15991 11.8494 2.4823 11.5271 2.88 11.5271C3.27759 11.5271 3.59998 11.8494 3.59998 12.2471V12.967C3.59998 13.3647 3.27759 13.687 2.88 13.687Z" fill="#F0C419"/>
<path fill-rule="evenodd" clip-rule="evenodd" d="M1.43994 11.5221H0.719971C0.322021 11.5221 -0.000488281 11.1995 -0.000488281 10.8015C-0.000488281 10.4037 0.322021 10.0811 0.719971 10.0811H1.43994C1.83789 10.0811 2.16052 10.4037 2.16052 10.8015C2.16052 11.1995 1.83789 11.5221 1.43994 11.5221Z" fill="#F0C419"/>
<path fill-rule="evenodd" clip-rule="evenodd" d="M5.04114 11.5221H4.32117C3.92322 11.5221 3.60059 11.1995 3.60059 10.8015C3.60059 10.4037 3.92322 10.0811 4.32117 10.0811H5.04114C5.43909 10.0811 5.7616 10.4037 5.7616 10.8015C5.7616 11.1995 5.43909 11.5221 5.04114 11.5221Z" fill="#F0C419"/>
<path fill-rule="evenodd" clip-rule="evenodd" d="M33.125 3.60095C32.7273 3.60095 32.405 3.27856 32.405 2.88086V2.16089C32.405 1.76331 32.7274 1.44092 33.125 1.44092C33.5227 1.44092 33.845 1.76331 33.845 2.16089V2.88086C33.8451 3.27856 33.5227 3.60095 33.125 3.60095Z" fill="#F0C419"/>
<path fill-rule="evenodd" clip-rule="evenodd" d="M33.125 7.20105C32.7273 7.20105 32.405 6.87866 32.405 6.48096V5.76099C32.405 5.3634 32.7274 5.04102 33.125 5.04102C33.5227 5.04102 33.845 5.3634 33.845 5.76099V6.48096C33.8451 6.87866 33.5227 7.20105 33.125 7.20105Z" fill="#F0C419"/>
<path fill-rule="evenodd" clip-rule="evenodd" d="M31.6849 5.04114H30.965C30.7075 5.0415 30.4695 4.9043 30.3406 4.6814C30.2117 4.4585 30.2118 4.18372 30.3406 3.96082C30.4695 3.73792 30.7075 3.60071 30.965 3.60107H31.6849C31.9424 3.60071 32.1804 3.73792 32.3093 3.96082C32.4381 4.18372 32.4381 4.4585 32.3093 4.6814C32.1804 4.9043 31.9424 5.0415 31.6848 5.04114H31.6849Z" fill="#F0C419"/>
<path fill-rule="evenodd" clip-rule="evenodd" d="M35.286 5.04114H34.5659C34.3086 5.0415 34.0704 4.9043 33.9417 4.6814C33.8127 4.4585 33.8127 4.18372 33.9417 3.96082C34.0706 3.73792 34.3086 3.60071 34.566 3.60107H35.286C35.5435 3.60071 35.7815 3.73792 35.9104 3.96082C36.0392 4.18372 36.0392 4.4585 35.9103 4.6814C35.7815 4.9043 35.5435 5.0415 35.2859 5.04114H35.286Z" fill="#F0C419"/>
<path fill-rule="evenodd" clip-rule="evenodd" d="M40.3259 10.802C39.9283 10.802 39.606 10.4797 39.606 10.082V9.36206C39.606 8.96436 39.9283 8.64209 40.3259 8.64209C40.7236 8.64209 41.046 8.96436 41.046 9.36206V10.082C41.046 10.4797 40.7236 10.802 40.3259 10.802Z" fill="#F0C419"/>
<path fill-rule="evenodd" clip-rule="evenodd" d="M40.3259 14.4032C39.9283 14.4032 39.606 14.0808 39.606 13.6831V12.9631C39.606 12.5656 39.9283 12.2432 40.3259 12.2432C40.7236 12.2432 41.046 12.5656 41.046 12.9631V13.6831C41.046 14.0808 40.7236 14.4032 40.3259 14.4032Z" fill="#F0C419"/>
<path fill-rule="evenodd" clip-rule="evenodd" d="M38.886 12.2419H38.166C37.7683 12.2419 37.446 11.9197 37.446 11.522C37.446 11.1244 37.7683 10.802 38.166 10.802H38.886C39.2837 10.802 39.606 11.1244 39.606 11.522C39.606 11.9197 39.2837 12.2419 38.886 12.2419Z" fill="#F0C419"/>
<path fill-rule="evenodd" clip-rule="evenodd" d="M42.4869 12.2419H41.7668C41.3693 12.2419 41.0469 11.9197 41.0469 11.522C41.0469 11.1244 41.3693 10.802 41.7668 10.802H42.4869C42.8845 10.802 43.2069 11.1244 43.2069 11.522C43.2069 11.9197 42.8845 12.2419 42.4869 12.2419Z" fill="#F0C419"/>
<path fill-rule="evenodd" clip-rule="evenodd" d="M37.446 26.645C37.446 33.053 33.5858 38.83 27.6656 41.2821C21.7454 43.7343 14.9309 42.3787 10.3999 37.8473C5.8689 33.316 4.51379 26.5016 6.96631 20.5814C9.41882 14.6614 15.196 10.8016 21.604 10.802C25.8057 10.802 29.8353 12.4712 32.8063 15.4424C35.7773 18.4136 37.4463 22.4432 37.446 26.645Z" fill="#F0C419"/>
<path fill-rule="evenodd" clip-rule="evenodd" d="M18.7229 23.0438C18.5057 23.0441 18.2999 22.9464 18.1628 22.7778C17.62 22.0396 16.7583 21.6036 15.8419 21.6036C14.9255 21.6036 14.0637 22.0396 13.5209 22.7778C13.2706 23.0869 12.8173 23.1348 12.5081 22.8846C12.1989 22.6345 12.1509 22.1812 12.4009 21.8718C13.2177 20.7954 14.4911 20.1631 15.8424 20.1631C17.1936 20.1631 18.467 20.7954 19.2838 21.8718C19.458 22.0878 19.4926 22.3845 19.3728 22.6348C19.2531 22.8849 19.0002 23.0441 18.7229 23.0438Z" fill="#E57E25"/>
<path fill-rule="evenodd" clip-rule="evenodd" d="M12.9618 19.443C12.7306 19.4429 12.5134 19.3318 12.3782 19.1442C12.2429 18.9567 12.2059 18.7155 12.2789 18.496C12.9802 16.7765 14.71 15.7051 16.5619 15.843C16.9595 15.843 17.2819 16.1654 17.2819 16.563C17.2819 16.9607 16.9595 17.283 16.5619 17.283C15.3325 17.1575 14.1595 17.828 13.6439 18.951C13.5459 19.2445 13.2712 19.4426 12.9618 19.443Z" fill="#2C2F38"/>
<path fill-rule="evenodd" clip-rule="evenodd" d="M30.2449 23.0439C30.0265 23.0442 29.8197 22.9453 29.6829 22.775C29.1399 22.0375 28.2787 21.6022 27.3629 21.6022C26.4471 21.6022 25.5858 22.0375 25.0428 22.775C24.7926 23.0841 24.3392 23.1318 24.03 22.8817C23.7208 22.6316 23.6729 22.1782 23.9229 21.869C24.7396 20.7925 26.0131 20.1602 27.3644 20.1602C28.7157 20.1602 29.9891 20.7925 30.8059 21.869C30.98 22.085 31.0146 22.3816 30.8949 22.6318C30.775 22.8821 30.5222 23.0413 30.2449 23.041V23.0439Z" fill="#E57E25"/>
<path fill-rule="evenodd" clip-rule="evenodd" d="M30.2439 19.443C29.9362 19.4429 29.6625 19.2472 29.5629 18.9561C29.0463 17.8329 27.8743 17.1608 26.6439 17.282C26.2462 17.282 25.9238 16.9597 25.9238 16.562C25.9238 16.1644 26.2462 15.842 26.6439 15.842C28.4957 15.7041 30.2255 16.7755 30.9269 18.495C30.9998 18.7145 30.9628 18.9556 30.8275 19.1432C30.6923 19.3308 30.4751 19.4419 30.2438 19.442L30.2439 19.443Z" fill="#2C2F38"/>
<path fill-rule="evenodd" clip-rule="evenodd" d="M32.4019 28.459C32.4019 28.959 32.3949 29.446 32.3519 29.942C32.3159 30.5054 32.2438 31.0659 32.1359 31.62C32.1296 31.6755 32.12 31.7307 32.1068 31.785C31.835 33.1597 31.1897 34.4329 30.2418 35.4651C29.8615 35.9019 29.4342 36.2955 28.9679 36.639C28.2554 37.1829 27.473 37.6285 26.6418 37.9641C26.5189 38.014 26.3899 38.0641 26.2599 38.108C25.9209 38.2301 25.5829 38.3311 25.2368 38.425C24.2834 38.6755 23.3058 38.8228 22.3209 38.864C22.0758 38.8781 21.8379 38.886 21.6008 38.886C21.3639 38.886 21.1259 38.879 20.8809 38.864C19.8959 38.8228 18.9183 38.6755 17.9648 38.425C17.6199 38.3311 17.2809 38.2311 16.9419 38.108C16.8119 38.0641 16.6829 38.014 16.5598 37.9641C15.7286 37.6285 14.9464 37.1829 14.2339 36.639C13.7675 36.2955 13.3402 35.9019 12.9598 35.4651C12.0121 34.4329 11.3668 33.1597 11.0948 31.785C11.0817 31.7307 11.072 31.6755 11.0658 31.62C10.958 31.0659 10.8859 30.5054 10.8499 29.942C10.8069 29.442 10.7998 28.9551 10.7998 28.459C10.8069 28.25 10.8069 28.041 10.8219 27.832C10.8219 27.688 10.8289 27.532 10.8429 27.3931C10.8685 27.2649 10.8805 27.1345 10.8788 27.0039C10.8788 27.004 11.1309 27.198 11.5789 27.504H11.5858C11.9458 27.749 12.4429 28.058 13.0548 28.397C13.4548 28.627 13.9119 28.865 14.4019 29.097C15.1172 29.4351 15.8518 29.731 16.6018 29.983C17.0558 30.134 17.5238 30.271 18.0018 30.3831C18.9458 30.6163 19.9104 30.7563 20.8818 30.801C21.0688 30.808 21.2559 30.8149 21.4508 30.8149H21.7509C21.9448 30.8149 22.1328 30.808 22.3198 30.801C23.2911 30.7563 24.2559 30.6163 25.1998 30.3831C25.6818 30.2681 26.1498 30.131 26.5999 29.983C27.3499 29.731 28.0845 29.4351 28.7998 29.097C29.2898 28.8669 29.7428 28.629 30.1469 28.397C30.7588 28.058 31.2628 27.7419 31.6228 27.4971C32.0768 27.197 32.3229 26.9971 32.3229 26.9971C32.3212 27.1276 32.3333 27.2579 32.3588 27.386C32.3738 27.53 32.3798 27.686 32.3798 27.825C32.3948 28.0341 32.3948 28.243 32.4019 28.452V28.459Z" fill="white"/>
<path fill-rule="evenodd" clip-rule="evenodd" d="M32.355 29.942C32.319 30.5054 32.2468 31.0659 32.139 31.62C31.5302 32.0419 30.8978 32.4288 30.245 32.7791C29.813 33.0171 29.3311 33.254 28.8051 33.4921C28.1023 33.8134 27.3811 34.0922 26.645 34.327C26.184 34.478 25.702 34.615 25.205 34.7271C24.259 34.9471 23.2952 35.0811 22.325 35.127C22.1379 35.127 21.951 35.134 21.756 35.134H21.4561C21.262 35.134 21.074 35.127 20.887 35.127C19.9169 35.0811 18.9529 34.9471 18.0071 34.7271C17.507 34.6121 17.028 34.475 16.567 34.327C15.8309 34.0922 15.1096 33.8134 14.407 33.4921C13.881 33.254 13.3989 33.0171 12.967 32.7791C12.3142 32.4288 11.6819 32.0419 11.073 31.6201C10.9651 31.0659 10.8929 30.5054 10.8569 29.942C11.0436 29.9155 11.233 29.9648 11.3829 30.079C11.8901 30.4597 12.4191 30.8107 12.9669 31.13C13.377 31.375 13.86 31.641 14.407 31.908C15.1084 32.2528 15.8297 32.5557 16.567 32.8151C17.028 32.974 17.51 33.125 18.007 33.2471C18.9495 33.4915 19.9146 33.6387 20.887 33.686C21.074 33.693 21.261 33.7001 21.4561 33.7001H21.756C21.95 33.7001 22.1379 33.6931 22.325 33.686C23.2975 33.6387 24.2626 33.4915 25.205 33.2471C25.705 33.125 26.184 32.973 26.645 32.8151C27.3823 32.5557 28.1035 32.2527 28.8051 31.908C29.353 31.641 29.835 31.375 30.245 31.13C30.793 30.8107 31.3218 30.4597 31.829 30.079C31.979 29.9648 32.1685 29.9155 32.355 29.942Z" fill="#E6E7E8"/>
<path fill-rule="evenodd" clip-rule="evenodd" d="M22.3229 30.8059V38.864C22.0779 38.879 21.8398 38.886 21.6029 38.886C21.3658 38.886 21.1278 38.879 20.8828 38.864V30.8059C21.0698 30.813 21.2578 30.8199 21.4518 30.8199H21.7518C21.9489 30.821 22.1359 30.813 22.3229 30.8059Z" fill="#E6E7E8"/>
<path fill-rule="evenodd" clip-rule="evenodd" d="M18.0029 30.3889V38.2239C18.0055 38.2925 17.9933 38.3606 17.967 38.424C17.6219 38.33 17.283 38.23 16.944 38.1069C16.814 38.064 16.6851 38.0129 16.562 37.9629V30.193C16.563 30.1218 16.5752 30.0513 16.598 29.9839C17.052 30.137 17.521 30.2739 18.0029 30.3889Z" fill="#E6E7E8"/>
<path fill-rule="evenodd" clip-rule="evenodd" d="M14.4021 29.0999V36.1859C14.4045 36.3524 14.3453 36.514 14.2361 36.6398C13.7697 36.2964 13.3424 35.9027 12.962 35.4659V28.7468C12.9596 28.6249 12.9922 28.5048 13.056 28.4009C13.4561 28.6309 13.9131 28.8688 14.4031 29.1008L14.4021 29.0999Z" fill="#E6E7E8"/>
<path fill-rule="evenodd" clip-rule="evenodd" d="M30.2449 28.7469V35.465C29.8645 35.9017 29.4373 36.2954 28.9708 36.6389C28.8616 36.5132 28.8025 36.3516 28.8048 36.1851L28.8049 29.099C29.2949 28.8689 29.7479 28.631 30.1519 28.3989C30.2157 28.5029 30.2484 28.623 30.2458 28.745L30.2449 28.7469Z" fill="#E6E7E8"/>
<path fill-rule="evenodd" clip-rule="evenodd" d="M26.641 30.194V37.964C26.5181 38.0139 26.389 38.064 26.259 38.1079C25.92 38.23 25.582 38.3309 25.2361 38.4249C25.2098 38.3616 25.1975 38.2935 25.2 38.225V30.3899C25.682 30.2749 26.15 30.1379 26.6 29.99C26.6228 30.0574 26.635 30.1279 26.636 30.199L26.641 30.194Z" fill="#E6E7E8"/>
<path fill-rule="evenodd" clip-rule="evenodd" d="M8.99805 29.25C8.76099 29.25 8.53931 29.1328 8.40601 28.9368C8.27271 28.7407 8.245 28.4915 8.33203 28.271C8.42004 28.0551 9.30505 26.134 13.2321 25.666C13.627 25.6191 13.9851 25.9011 14.032 26.296C14.079 26.6909 13.7969 27.0491 13.402 27.0961C10.3311 27.463 9.66309 28.8151 9.65796 28.828C9.53735 29.0839 9.28088 29.2479 8.99805 29.2501V29.25Z" fill="#E57E25"/>
<path fill-rule="evenodd" clip-rule="evenodd" d="M34.205 29.265C33.9182 29.2654 33.6587 29.0957 33.5439 28.833C33.517 28.78 32.824 27.465 29.799 27.105C29.4041 27.0581 29.1221 26.6998 29.1689 26.3049C29.2159 25.9102 29.5741 25.6281 29.969 25.675C33.8989 26.144 34.7839 28.063 34.869 28.28C34.9587 28.502 34.9324 28.7542 34.7983 28.9526C34.6644 29.1512 34.4404 29.2701 34.2009 29.27L34.205 29.265Z" fill="#E57E25"/>
<path fill-rule="evenodd" clip-rule="evenodd" d="M25.9601 7.09302C23.113 6.27686 20.0941 6.27686 17.2471 7.09302L21.0061 1.06506C21.1287 0.849121 21.3578 0.71582 21.6061 0.71582C21.8544 0.71582 22.0835 0.849121 22.2061 1.06506L25.9601 7.09302Z" fill="#B49ACA"/>
</svg>
