<svg width="91" height="30" viewBox="0 0 91 30" fill="none" xmlns="http://www.w3.org/2000/svg">
<path d="M10.9946 8.1V9.96H7.29465V22H5.01465V9.96H1.29465V8.1H10.9946ZM28.1037 10.98L24.6837 22H22.2837L20.0637 13.86L17.8437 22H15.4437L12.0037 10.98H14.3237L16.6237 19.84L18.9637 10.98H21.3437L23.5837 19.8L25.8637 10.98H28.1037ZM30.9676 9.52C30.5543 9.52 30.2076 9.38 29.9276 9.1C29.6476 8.82 29.5076 8.47333 29.5076 8.06C29.5076 7.64667 29.6476 7.3 29.9276 7.02C30.2076 6.74 30.5543 6.6 30.9676 6.6C31.3676 6.6 31.7076 6.74 31.9876 7.02C32.2676 7.3 32.4076 7.64667 32.4076 8.06C32.4076 8.47333 32.2676 8.82 31.9876 9.1C31.7076 9.38 31.3676 9.52 30.9676 9.52ZM32.0876 10.98V22H29.8076V10.98H32.0876ZM37.7411 12.84V18.94C37.7411 19.3533 37.8344 19.6533 38.0211 19.84C38.2211 20.0133 38.5544 20.1 39.0211 20.1H40.4211V22H38.6211C37.5944 22 36.8077 21.76 36.2611 21.28C35.7144 20.8 35.4411 20.02 35.4411 18.94V12.84H34.1411V10.98H35.4411V8.24H37.7411V10.98H40.4211V12.84H37.7411ZM45.1825 12.84V18.94C45.1825 19.3533 45.2758 19.6533 45.4625 19.84C45.6625 20.0133 45.9958 20.1 46.4625 20.1H47.8625V22H46.0625C45.0358 22 44.2491 21.76 43.7025 21.28C43.1558 20.8 42.8825 20.02 42.8825 18.94V12.84H41.5825V10.98H42.8825V8.24H45.1825V10.98H47.8625V12.84H45.1825ZM60.0639 16.22C60.0639 16.6333 60.0372 17.0067 59.9839 17.34H51.5639C51.6305 18.22 51.9572 18.9267 52.5439 19.46C53.1305 19.9933 53.8505 20.26 54.7039 20.26C55.9305 20.26 56.7972 19.7467 57.3039 18.72H59.7639C59.4305 19.7333 58.8239 20.5667 57.9439 21.22C57.0772 21.86 55.9972 22.18 54.7039 22.18C53.6505 22.18 52.7039 21.9467 51.8639 21.48C51.0372 21 50.3839 20.3333 49.9039 19.48C49.4372 18.6133 49.2039 17.6133 49.2039 16.48C49.2039 15.3467 49.4305 14.3533 49.8839 13.5C50.3505 12.6333 50.9972 11.9667 51.8239 11.5C52.6639 11.0333 53.6239 10.8 54.7039 10.8C55.7439 10.8 56.6705 11.0267 57.4839 11.48C58.2972 11.9333 58.9305 12.5733 59.3839 13.4C59.8372 14.2133 60.0639 15.1533 60.0639 16.22ZM57.6839 15.5C57.6705 14.66 57.3705 13.9867 56.7839 13.48C56.1972 12.9733 55.4705 12.72 54.6039 12.72C53.8172 12.72 53.1439 12.9733 52.5839 13.48C52.0239 13.9733 51.6905 14.6467 51.5839 15.5H57.6839ZM64.5876 12.58C64.921 12.02 65.361 11.5867 65.9076 11.28C66.4676 10.96 67.1276 10.8 67.8876 10.8V13.16H67.3076C66.4143 13.16 65.7343 13.3867 65.2676 13.84C64.8143 14.2933 64.5876 15.08 64.5876 16.2V22H62.3076V10.98H64.5876V12.58Z" fill="white"/>
<path fill-rule="evenodd" clip-rule="evenodd" d="M77.5446 22.5681L88.4515 10.021L88.8509 18.8035C88.872 19.2629 89.2618 19.6189 89.7216 19.5977C90.1814 19.5769 90.5372 19.187 90.5164 18.7273L90.0595 8.69727C90.029 8.25293 89.8217 7.83911 89.484 7.54858C89.1463 7.25806 88.7062 7.11475 88.2623 7.15088L78.2861 8.09302C77.8277 8.13623 77.4912 8.54297 77.5344 9.00098C77.5776 9.45947 77.9842 9.79614 78.4426 9.75269L87.2125 8.90576L76.2865 21.4746C75.9845 21.822 76.0213 22.3484 76.3687 22.6504C76.7161 22.9524 77.2426 22.9155 77.5446 22.5681Z" fill="#326DF9"/>
</svg>
